<svg width="128" height="25" viewBox="0 0 128 25" fill="none" xmlns="http://www.w3.org/2000/svg">
<path d="M34.6997 10.8064C36.0295 10.8064 37.0905 10.6359 37.8825 10.2949C38.6746 9.95499 39.3338 9.43203 39.8611 8.72917C40.3884 8.02632 40.9168 7.12474 41.4442 6.02548L44.2975 0.0909424H47.4803L44.7264 5.81106C44.1552 6.98667 43.6184 7.97611 43.1183 8.77833C42.6181 9.58055 42.0238 10.2353 41.3374 10.7405C40.65 11.2456 39.7355 11.6473 38.5919 11.9443C39.6142 12.2079 40.469 12.5708 41.1564 13.0321C41.8439 13.4933 42.456 14.1062 42.9948 14.8698C43.5337 15.6343 44.0997 16.5819 44.693 17.7136L47.925 23.8458H44.7421L41.5101 17.5159C40.9712 16.4501 40.446 15.6144 39.9354 15.0099C39.4237 14.4054 38.7729 13.9744 37.9809 13.7161C37.1888 13.4578 36.0954 13.3291 34.6986 13.3291H32.7525V23.8469H29.9327V0.0909424H32.7525V10.8064H34.6986H34.6997Z" fill="white"/>
<path d="M54.9907 24.2255C52.9013 24.2255 51.4092 23.6931 50.5136 22.6263C49.6169 21.5605 49.1691 19.7856 49.1691 17.3015V7.17912H51.7085V17.3015C51.7085 19.0273 52.0161 20.2583 52.6313 20.9936C53.2476 21.7299 54.2803 22.0981 55.7315 22.0981C57.4464 22.0981 58.6696 21.7195 59.4009 20.9612C60.1323 20.2029 60.4975 18.9394 60.4975 17.1697V7.17912H63.0368V23.8458H60.9589L60.7611 21.4392C60.2223 22.4391 59.5097 23.1534 58.6256 23.5822C57.7404 24.0111 56.5288 24.2255 54.9897 24.2255H54.9907Z" fill="white"/>
<path d="M69.4717 11.6807H67.1792C67.1792 10.0219 67.7128 8.79611 68.779 8.00435C69.8452 7.21259 71.489 6.81723 73.7103 6.81723C75.9316 6.81723 77.6329 7.22932 78.7158 8.0535C79.7987 8.87769 80.3407 10.1474 80.3407 11.8617V20.3681C80.3407 21.1045 80.4506 21.5877 80.6703 21.8188C80.89 22.05 81.3295 22.1378 81.9897 22.0824V24.0937C81.7805 24.17 81.5942 24.215 81.4289 24.2255C81.2636 24.2359 81.0658 24.2422 80.8356 24.2422C80.0331 24.2422 79.3865 24.0278 78.8979 23.599C78.4082 23.1701 78.1644 22.6043 78.1644 21.9004C77.6151 22.6367 76.8419 23.2088 75.8468 23.6147C74.8518 24.0215 73.7061 24.2244 72.4087 24.2244C70.5504 24.2244 69.1212 23.7872 68.1209 22.9139C67.1206 22.0406 66.6205 20.8011 66.6205 19.1967C66.6205 17.3507 67.2116 16.0349 68.3929 15.2484C69.5742 14.4629 71.5559 14.0696 74.3381 14.0696H77.8013V11.8439C77.8013 10.7666 77.4885 9.99996 76.8618 9.54394C76.235 9.08792 75.1845 8.85991 73.7124 8.85991C72.2402 8.85991 71.0955 9.07746 70.4468 9.51151C69.7981 9.94557 69.4738 10.6683 69.4738 11.6797L69.4717 11.6807ZM77.816 18.8181V15.9502H74.3192C72.4945 15.9502 71.1887 16.1949 70.4029 16.6834C69.6171 17.1729 69.2237 17.9939 69.2237 19.1475C69.2237 20.1255 69.5533 20.8733 70.2135 21.39C70.8727 21.9067 71.807 22.165 73.0166 22.165C74.5557 22.165 75.7401 21.8795 76.5709 21.3074C77.4006 20.7363 77.816 19.9058 77.816 18.8181Z" fill="white"/>
<path d="M90.9367 24.2255C88.6829 24.2255 87.0088 23.5666 85.9155 22.2477C84.821 20.9288 84.2748 18.7313 84.2748 15.6531C84.2748 12.4003 84.821 10.1119 85.9155 8.7867C87.0099 7.46257 88.6944 6.8005 90.9702 6.8005C92.3775 6.8005 93.5012 6.97308 94.3424 7.31928C95.1837 7.66547 95.8784 8.23968 96.4288 9.0419V0.0909424H98.9682V23.8458H96.9394L96.6422 21.6368C96.3785 22.0437 96.0322 22.4474 95.6032 22.8491C95.1742 23.2507 94.5894 23.5802 93.8465 23.8385C93.1046 24.0968 92.1337 24.2255 90.9356 24.2255H90.9367ZM91.5132 22.165C92.7552 22.165 93.7335 21.9621 94.4492 21.5553C95.1638 21.1484 95.6723 20.4612 95.9747 19.4948C96.2771 18.5273 96.4277 17.2032 96.4277 15.5214C96.4277 13.7412 96.2927 12.37 96.0238 11.4088C95.7539 10.4476 95.2684 9.78241 94.5642 9.41425C93.8601 9.04609 92.8598 8.862 91.5624 8.862C90.3748 8.862 89.4373 9.07119 88.7509 9.48851C88.0635 9.90583 87.5749 10.6097 87.283 11.5992C86.9911 12.5876 86.8456 13.9514 86.8456 15.6877C86.8456 17.3256 86.989 18.6162 87.2746 19.5617C87.5603 20.5072 88.0436 21.1766 88.7258 21.573C89.407 21.9684 90.3361 22.1661 91.5132 22.1661V22.165Z" fill="white"/>
<path d="M105.146 7.18023L105.459 9.76887C106.042 8.59326 106.828 7.80464 107.818 7.40301C108.808 7.00138 109.818 6.80161 110.852 6.80161H111.166V9.32331H110.803C109.604 9.32331 108.527 9.55969 107.571 10.0324C106.615 10.5052 105.961 11.2739 105.608 12.3408V23.8469H103.069V7.18023H105.147H105.146Z" fill="white"/>
<path d="M115.483 11.6807H113.191C113.191 10.0219 113.724 8.79611 114.79 8.00435C115.857 7.21259 117.5 6.81723 119.722 6.81723C121.943 6.81723 123.644 7.22932 124.726 8.0535C125.809 8.87769 126.351 10.1474 126.351 11.8617V20.3681C126.351 21.1045 126.461 21.5877 126.681 21.8188C126.9 22.05 127.34 22.1378 128 22.0824V24.0937C127.791 24.17 127.605 24.215 127.439 24.2255C127.274 24.2359 127.076 24.2422 126.846 24.2422C126.043 24.2422 125.397 24.0278 124.908 23.599C124.42 23.1701 124.175 22.6043 124.175 21.9004C123.624 22.6367 122.852 23.2088 121.857 23.6147C120.862 24.0215 119.716 24.2244 118.419 24.2244C116.561 24.2244 115.132 23.7872 114.131 22.9139C113.131 22.0406 112.631 20.8011 112.631 19.1967C112.631 17.3507 113.222 16.0349 114.403 15.2484C115.585 14.4629 117.566 14.0696 120.348 14.0696H123.812V11.8439C123.812 10.7666 123.499 9.99996 122.872 9.54394C122.245 9.08792 121.195 8.85991 119.723 8.85991C118.251 8.85991 117.106 9.07746 116.457 9.51151C115.809 9.94557 115.484 10.6683 115.484 11.6797L115.483 11.6807ZM123.827 18.8181V15.9502H120.331C118.506 15.9502 117.2 16.1949 116.414 16.6834C115.629 17.1729 115.235 17.9939 115.235 19.1475C115.235 20.1255 115.565 20.8733 116.225 21.39C116.884 21.9067 117.818 22.165 119.028 22.165C120.567 22.165 121.752 21.8795 122.582 21.3074C123.412 20.7363 123.827 19.9058 123.827 18.8181Z" fill="white"/>
<path d="M18.6336 5.21911V-1.52588e-05H11.0447C4.94474 -1.52588e-05 -0.00012207 4.94299 -0.00012207 11.0407V18.6267H5.21991V23.8459H12.8088C18.9088 23.8459 23.8536 18.9028 23.8536 12.8051V5.21911H18.6336ZM17.1039 18.6225H5.22515V6.74615C5.22515 5.90523 5.90734 5.2233 6.74857 5.2233H18.6273V17.0997C18.6273 17.9406 17.9451 18.6225 17.1039 18.6225Z" fill="white"/>
</svg>
